<mxfile host="Electron" agent="Mozilla/5.0 (Windows NT 10.0; Win64; x64) AppleWebKit/537.36 (KHTML, like Gecko) draw.io/25.0.2 Chrome/128.0.6613.186 Electron/32.2.5 Safari/537.36" version="25.0.2">
  <diagram name="Страница — 1" id="Eb4dMBryn-bI4LExAzKX">
    <mxGraphModel dx="1160" dy="793" grid="1" gridSize="10" guides="1" tooltips="1" connect="1" arrows="1" fold="1" page="1" pageScale="1" pageWidth="827" pageHeight="1169" math="0" shadow="0">
      <root>
        <mxCell id="0" />
        <mxCell id="1" parent="0" />
        <mxCell id="b6LDuwl4sLsLu9RzmKzq-3" value="" style="rounded=0;whiteSpace=wrap;html=1;" vertex="1" parent="1">
          <mxGeometry x="130" y="80" width="600" height="970" as="geometry" />
        </mxCell>
        <mxCell id="b6LDuwl4sLsLu9RzmKzq-4" value="Клиент&lt;div&gt;&lt;br&gt;&lt;/div&gt;" style="shape=umlActor;verticalLabelPosition=bottom;verticalAlign=top;html=1;outlineConnect=0;" vertex="1" parent="1">
          <mxGeometry x="50" y="140" width="30" height="60" as="geometry" />
        </mxCell>
        <mxCell id="b6LDuwl4sLsLu9RzmKzq-5" value="выбрать авто" style="ellipse;whiteSpace=wrap;html=1;" vertex="1" parent="1">
          <mxGeometry x="380" y="150" width="90" height="50" as="geometry" />
        </mxCell>
        <mxCell id="b6LDuwl4sLsLu9RzmKzq-6" value="просмотр&lt;div&gt;списка&lt;/div&gt;&lt;div&gt;доступных&lt;/div&gt;" style="ellipse;whiteSpace=wrap;html=1;" vertex="1" parent="1">
          <mxGeometry x="290" y="90" width="100" height="50" as="geometry" />
        </mxCell>
        <mxCell id="b6LDuwl4sLsLu9RzmKzq-7" value="" style="endArrow=none;html=1;rounded=0;" edge="1" parent="1" source="b6LDuwl4sLsLu9RzmKzq-4" target="b6LDuwl4sLsLu9RzmKzq-5">
          <mxGeometry width="50" height="50" relative="1" as="geometry">
            <mxPoint x="410" y="430" as="sourcePoint" />
            <mxPoint x="460" y="380" as="targetPoint" />
          </mxGeometry>
        </mxCell>
        <mxCell id="b6LDuwl4sLsLu9RzmKzq-8" value="" style="endArrow=classic;html=1;rounded=0;dashed=1;dashPattern=8 8;" edge="1" parent="1" source="b6LDuwl4sLsLu9RzmKzq-5" target="b6LDuwl4sLsLu9RzmKzq-6">
          <mxGeometry width="50" height="50" relative="1" as="geometry">
            <mxPoint x="410" y="430" as="sourcePoint" />
            <mxPoint x="460" y="380" as="targetPoint" />
          </mxGeometry>
        </mxCell>
        <mxCell id="b6LDuwl4sLsLu9RzmKzq-9" value="заполнить форму&lt;div&gt;заказа&lt;/div&gt;" style="ellipse;whiteSpace=wrap;html=1;" vertex="1" parent="1">
          <mxGeometry x="375" y="320" width="110" height="60" as="geometry" />
        </mxCell>
        <mxCell id="b6LDuwl4sLsLu9RzmKzq-10" value="" style="endArrow=none;html=1;rounded=0;" edge="1" parent="1" source="b6LDuwl4sLsLu9RzmKzq-4" target="b6LDuwl4sLsLu9RzmKzq-9">
          <mxGeometry width="50" height="50" relative="1" as="geometry">
            <mxPoint x="410" y="430" as="sourcePoint" />
            <mxPoint x="460" y="380" as="targetPoint" />
          </mxGeometry>
        </mxCell>
        <mxCell id="b6LDuwl4sLsLu9RzmKzq-11" value="указать паспортные&lt;div&gt;данные&lt;/div&gt;" style="ellipse;whiteSpace=wrap;html=1;" vertex="1" parent="1">
          <mxGeometry x="300" y="210" width="110" height="60" as="geometry" />
        </mxCell>
        <mxCell id="b6LDuwl4sLsLu9RzmKzq-12" value="указать срок&lt;div&gt;аренды&lt;/div&gt;" style="ellipse;whiteSpace=wrap;html=1;" vertex="1" parent="1">
          <mxGeometry x="440" y="210" width="100" height="60" as="geometry" />
        </mxCell>
        <mxCell id="b6LDuwl4sLsLu9RzmKzq-13" value="" style="endArrow=classic;html=1;rounded=0;exitX=0.284;exitY=0.067;exitDx=0;exitDy=0;exitPerimeter=0;dashed=1;dashPattern=8 8;" edge="1" parent="1" source="b6LDuwl4sLsLu9RzmKzq-9">
          <mxGeometry width="50" height="50" relative="1" as="geometry">
            <mxPoint x="410" y="430" as="sourcePoint" />
            <mxPoint x="380" y="270" as="targetPoint" />
          </mxGeometry>
        </mxCell>
        <mxCell id="b6LDuwl4sLsLu9RzmKzq-14" value="" style="endArrow=classic;html=1;rounded=0;exitX=0.643;exitY=0.076;exitDx=0;exitDy=0;exitPerimeter=0;entryX=0.434;entryY=0.957;entryDx=0;entryDy=0;entryPerimeter=0;dashed=1;dashPattern=8 8;" edge="1" parent="1" source="b6LDuwl4sLsLu9RzmKzq-9" target="b6LDuwl4sLsLu9RzmKzq-12">
          <mxGeometry width="50" height="50" relative="1" as="geometry">
            <mxPoint x="410" y="430" as="sourcePoint" />
            <mxPoint x="460" y="380" as="targetPoint" />
          </mxGeometry>
        </mxCell>
        <mxCell id="b6LDuwl4sLsLu9RzmKzq-17" value="оплатить заказ" style="ellipse;whiteSpace=wrap;html=1;" vertex="1" parent="1">
          <mxGeometry x="370" y="400" width="120" height="60" as="geometry" />
        </mxCell>
        <mxCell id="b6LDuwl4sLsLu9RzmKzq-18" value="" style="endArrow=none;html=1;rounded=0;" edge="1" parent="1" source="b6LDuwl4sLsLu9RzmKzq-4" target="b6LDuwl4sLsLu9RzmKzq-17">
          <mxGeometry width="50" height="50" relative="1" as="geometry">
            <mxPoint x="410" y="450" as="sourcePoint" />
            <mxPoint x="460" y="400" as="targetPoint" />
          </mxGeometry>
        </mxCell>
        <mxCell id="b6LDuwl4sLsLu9RzmKzq-19" value="администратор&lt;div&gt;&lt;br&gt;&lt;/div&gt;" style="shape=umlActor;verticalLabelPosition=bottom;verticalAlign=top;html=1;outlineConnect=0;" vertex="1" parent="1">
          <mxGeometry x="50" y="660" width="30" height="60" as="geometry" />
        </mxCell>
        <mxCell id="b6LDuwl4sLsLu9RzmKzq-20" value="возврат автомобиля" style="ellipse;whiteSpace=wrap;html=1;" vertex="1" parent="1">
          <mxGeometry x="375" y="510" width="110" height="60" as="geometry" />
        </mxCell>
        <mxCell id="b6LDuwl4sLsLu9RzmKzq-21" value="" style="endArrow=none;html=1;rounded=0;" edge="1" parent="1" source="b6LDuwl4sLsLu9RzmKzq-19" target="b6LDuwl4sLsLu9RzmKzq-20">
          <mxGeometry width="50" height="50" relative="1" as="geometry">
            <mxPoint x="410" y="520" as="sourcePoint" />
            <mxPoint x="460" y="470" as="targetPoint" />
          </mxGeometry>
        </mxCell>
        <mxCell id="b6LDuwl4sLsLu9RzmKzq-23" value="стандартная процедура&lt;div&gt;оформления&lt;/div&gt;" style="ellipse;whiteSpace=wrap;html=1;" vertex="1" parent="1">
          <mxGeometry x="300" y="620" width="110" height="60" as="geometry" />
        </mxCell>
        <mxCell id="b6LDuwl4sLsLu9RzmKzq-26" value="" style="endArrow=classic;html=1;rounded=0;entryX=0.701;entryY=0.124;entryDx=0;entryDy=0;entryPerimeter=0;dashed=1;dashPattern=8 8;" edge="1" parent="1" source="b6LDuwl4sLsLu9RzmKzq-20" target="b6LDuwl4sLsLu9RzmKzq-23">
          <mxGeometry width="50" height="50" relative="1" as="geometry">
            <mxPoint x="410" y="520" as="sourcePoint" />
            <mxPoint x="460" y="470" as="targetPoint" />
          </mxGeometry>
        </mxCell>
        <mxCell id="b6LDuwl4sLsLu9RzmKzq-27" value="повреждение авто" style="ellipse;whiteSpace=wrap;html=1;" vertex="1" parent="1">
          <mxGeometry x="450" y="620" width="110" height="60" as="geometry" />
        </mxCell>
        <mxCell id="b6LDuwl4sLsLu9RzmKzq-28" value="внос информации&lt;span style=&quot;text-wrap: nowrap; color: rgba(0, 0, 0, 0); font-family: monospace; font-size: 0px; text-align: start;&quot;&gt;%3CmxGraphModel%3E%3Croot%3E%3CmxCell%20id%3D%220%22%2F%3E%3CmxCell%20id%3D%221%22%20parent%3D%220%22%2F%3E%3CmxCell%20id%3D%222%22%20value%3D%22%D1%81%D1%82%D0%B0%D0%BD%D0%B4%D0%B0%D1%80%D1%82%D0%BD%D0%B0%D1%8F%20%D0%BF%D1%80%D0%BE%D1%86%D0%B5%D0%B4%D1%83%D1%80%D0%B0%26lt%3Bdiv%26gt%3B%D0%BE%D1%84%D0%BE%D1%80%D0%BC%D0%BB%D0%B5%D0%BD%D0%B8%D1%8F%26lt%3B%2Fdiv%26gt%3B%22%20style%3D%22ellipse%3BwhiteSpace%3Dwrap%3Bhtml%3D1%3B%22%20vertex%3D%221%22%20parent%3D%221%22%3E%3CmxGeometry%20x%3D%22300%22%20y%3D%22620%22%20width%3D%22110%22%20height%3D%2260%22%20as%3D%22geometry%22%2F%3E%3C%2FmxCell%3E%3C%2Froot%3E%3C%2FmxGraphModel%3E&lt;/span&gt;" style="ellipse;whiteSpace=wrap;html=1;" vertex="1" parent="1">
          <mxGeometry x="375" y="710" width="110" height="60" as="geometry" />
        </mxCell>
        <mxCell id="b6LDuwl4sLsLu9RzmKzq-29" value="выставление счета за ремонт" style="ellipse;whiteSpace=wrap;html=1;" vertex="1" parent="1">
          <mxGeometry x="530" y="710" width="110" height="60" as="geometry" />
        </mxCell>
        <mxCell id="b6LDuwl4sLsLu9RzmKzq-30" value="" style="endArrow=classic;html=1;rounded=0;entryX=0.5;entryY=0;entryDx=0;entryDy=0;dashed=1;dashPattern=8 8;" edge="1" parent="1" source="b6LDuwl4sLsLu9RzmKzq-27" target="b6LDuwl4sLsLu9RzmKzq-28">
          <mxGeometry width="50" height="50" relative="1" as="geometry">
            <mxPoint x="410" y="650" as="sourcePoint" />
            <mxPoint x="460" y="600" as="targetPoint" />
          </mxGeometry>
        </mxCell>
        <mxCell id="b6LDuwl4sLsLu9RzmKzq-31" value="" style="endArrow=classic;html=1;rounded=0;dashed=1;dashPattern=8 8;" edge="1" parent="1" source="b6LDuwl4sLsLu9RzmKzq-27" target="b6LDuwl4sLsLu9RzmKzq-29">
          <mxGeometry width="50" height="50" relative="1" as="geometry">
            <mxPoint x="410" y="650" as="sourcePoint" />
            <mxPoint x="460" y="600" as="targetPoint" />
          </mxGeometry>
        </mxCell>
        <mxCell id="b6LDuwl4sLsLu9RzmKzq-32" value="" style="endArrow=classic;html=1;rounded=0;" edge="1" parent="1" source="b6LDuwl4sLsLu9RzmKzq-20" target="b6LDuwl4sLsLu9RzmKzq-27">
          <mxGeometry width="50" height="50" relative="1" as="geometry">
            <mxPoint x="410" y="650" as="sourcePoint" />
            <mxPoint x="460" y="600" as="targetPoint" />
          </mxGeometry>
        </mxCell>
        <mxCell id="b6LDuwl4sLsLu9RzmKzq-33" value="отклонение заявки" style="ellipse;whiteSpace=wrap;html=1;" vertex="1" parent="1">
          <mxGeometry x="270" y="840" width="120" height="70" as="geometry" />
        </mxCell>
        <mxCell id="b6LDuwl4sLsLu9RzmKzq-34" value="" style="endArrow=none;html=1;rounded=0;" edge="1" parent="1" source="b6LDuwl4sLsLu9RzmKzq-19" target="b6LDuwl4sLsLu9RzmKzq-33">
          <mxGeometry width="50" height="50" relative="1" as="geometry">
            <mxPoint x="410" y="850" as="sourcePoint" />
            <mxPoint x="460" y="800" as="targetPoint" />
          </mxGeometry>
        </mxCell>
      </root>
    </mxGraphModel>
  </diagram>
</mxfile>
